<svg width="330" height="212" xmlns="http://www.w3.org/2000/svg" xmlns:xlink="http://www.w3.org/1999/xlink"><defs><linearGradient x1="50%" y1="0%" x2="50%" y2="100%" id="b"><stop stop-color="#87BCFB" offset="0%"/><stop stop-color="#1F7EEE" offset="100%"/></linearGradient><path d="M76.524 142.312c3.905 0 7.474-.37 10.706-1.111 8.417-1.885 15.823-5.656 22.22-11.312 6.397-5.656 11.463-12.373 15.2-20.15 3.737-7.776 6.111-15.84 7.121-24.189.337-3.165.505-6.195.505-9.09 0-6.8-.774-13.5-2.323-20.099s-3.939-12.322-7.171-17.17c-4.175-6.195-9.932-10.992-17.271-14.393-7.34-3.4-14.78-5.1-22.321-5.1-5.454 0-10.84.993-16.16 2.98-5.32 1.986-9.965 4.948-13.938 8.887-3.973 3.94-6.599 8.737-7.878 14.393-.673 3.03-1.01 5.959-1.01 8.787 0 6.733 1.784 12.71 5.353 17.928s9.36 8.77 17.372 10.655c1.683.404 3.468.606 5.353.606 4.107 0 8.198-.875 12.272-2.626 4.073-1.75 7.406-4.242 9.998-7.474 2.593-3.232 3.889-6.969 3.889-11.211 0-.74-.034-1.313-.101-1.717-.539-5.925-3.636-12.221-9.292-18.887l-10.201 8.282c3.905 4.444 5.858 8.45 5.858 12.019 0 2.626-1.06 4.696-3.181 6.211-2.121 1.515-4.73 2.273-7.828 2.273h-1.212c-1.212-.135-2.121-.27-2.727-.404-4.31-.943-7.457-2.76-9.444-5.454-1.986-2.693-2.979-5.959-2.979-9.797 0-1.953.27-4.074.808-6.363.74-3.232 2.357-6.06 4.848-8.484 2.491-2.424 5.521-4.276 9.09-5.555a32.387 32.387 0 0111.009-1.919c5.723 0 11.228 1.195 16.514 3.585 5.285 2.39 9.308 5.74 12.069 10.05 2.559 3.77 4.46 8.231 5.707 13.383 1.245 5.15 1.868 10.487 1.868 16.008 0 2.559-.168 5.286-.505 8.181-.808 6.935-2.677 13.517-5.606 19.746-2.928 6.228-6.85 11.53-11.766 15.907-4.915 4.377-10.571 7.238-16.968 8.585a38.078 38.078 0 01-8.383.909c-5.858 0-11.413-1.296-16.665-3.888-5.252-2.593-9.528-6.246-12.827-10.959-4.78-6.666-7.171-15.251-7.171-25.755 0-7.205 1.246-15.083 3.737-23.634l-12.726-3.535c-2.693 9.494-4.04 18.45-4.04 26.866 0 6.733.808 12.945 2.424 18.635 1.616 5.69 3.973 10.722 7.07 15.099 4.579 6.464 10.504 11.464 17.776 14.999s14.914 5.302 22.927 5.302zm75.144-74.336c.606-4.107 1.027-6.784 1.262-8.03.236-1.245.792-3.417 1.667-6.514L141.871 50.2c-.943 3.77-1.582 6.464-1.919 8.08-.337 1.616-.74 4.208-1.212 7.777l12.928 1.919zm-24.442 122.21c.606 0 1.448-.067 2.525-.202 2.828-.404 5.47-1.498 7.928-3.282 2.458-1.785 4.562-4.293 6.313-7.525 1.818-3.367 3.198-7.81 4.141-13.332.943-5.521 1.582-12.086 1.919-19.695 7.407-5.05 13.517-10.622 18.332-16.715 4.814-6.094 7.793-13.417 8.938-21.968l-13.029-2.121c-.606 5.05-2.104 9.46-4.495 13.231-2.39 3.77-5.538 7.238-9.443 10.403v-24.769c.013-13.794.35-24.223 1.01-31.286l-13.13-1.01c-.74 8.484-1.111 19.661-1.111 33.532l.101 22.725c0 2.222-.034 3.905-.101 5.05v4.545c-5.387 3.165-9.544 5.707-12.474 7.626-2.928 1.918-5.757 4.258-8.484 7.019-2.727 2.76-4.83 5.858-6.312 9.292-1.347 2.963-2.02 5.959-2.02 8.989 0 3.636.909 6.935 2.727 9.898 1.818 2.963 4.225 5.302 7.221 7.02 2.997 1.716 6.145 2.575 9.444 2.575zm-.707-13.13c-1.549 0-2.862-.572-3.939-1.717s-1.616-2.626-1.616-4.444c0-.539.034-.976.101-1.313.067-.74.337-1.616.808-2.626.808-1.953 2.373-3.838 4.697-5.656 2.323-1.818 5.605-4.04 9.847-6.666-.74 8.619-2.087 14.712-4.04 18.281-.74 1.414-1.633 2.458-2.677 3.131-1.043.673-2.104 1.01-3.181 1.01zm68.68-39.39c3.838 0 7.508-.774 11.009-2.323 5.117-2.222 9.393-5.757 12.827-10.605 3.165 1.347 6.127 2.02 8.888 2.02 3.3 0 6.514-.808 9.645-2.424 3.131-1.616 5.757-3.872 7.878-6.767 2.121-2.895 3.384-6.228 3.788-9.999l-12.928-2.424c-.067 2.424-.909 4.427-2.525 6.01-1.616 1.582-3.434 2.373-5.454 2.373-1.481 0-2.727-.236-3.737-.707 1.077-3.636 1.616-7.508 1.616-11.615 0-5.521-1.01-10.538-3.03-15.049-2.222-5.05-5.976-8.871-11.261-11.464-5.286-2.592-10.925-3.888-16.918-3.888-5.723 0-10.37 1.111-13.938 3.333-5.32 3.367-9.494 7.828-12.524 13.382-3.03 5.555-4.545 11.43-4.545 17.625 0 2.626.303 5.252.909 7.878 1.077 4.511 3.131 8.652 6.161 12.423 3.03 3.77 6.666 6.75 10.908 8.939 4.242 2.188 8.652 3.282 13.231 3.282zm0-12.625c-3.905 0-7.541-1.43-10.908-4.292-3.367-2.862-5.521-6.38-6.464-10.555a24.722 24.722 0 01-.505-4.848c0-4.175 1.01-8.198 3.03-12.07 2.02-3.871 4.713-6.75 8.08-8.635 1.953-1.077 4.242-1.616 6.868-1.616 3.232 0 6.38.757 9.444 2.272 3.063 1.516 5.134 3.35 6.211 5.505 1.481 2.895 2.222 6.262 2.222 10.1 0 1.077-.034 1.885-.101 2.424l-9.494 7.171c1.885 2.626 3.602 4.78 5.151 6.464-2.155 3.232-4.747 5.521-7.777 6.868-1.885.808-3.804 1.212-5.757 1.212zm62.115 71.104c3.77-.135 7.44-1.178 11.009-3.131 3.569-1.953 6.632-4.78 9.191-8.484 2.963-4.175 5.033-8.804 6.212-13.887 1.178-5.084 1.767-10.589 1.767-16.514 0-3.434-.168-7.238-.505-11.413 8.147-4.31 14.78-9.14 19.897-14.494 5.117-5.353 8.147-11.934 9.09-19.745l-12.928-2.121c-.337 4.242-1.97 7.996-4.899 11.262-2.929 3.265-6.985 6.38-12.17 9.342v-2.5c.009-2.917.076-7.335.202-13.256.202-6.868.303-13.837.303-20.907 0-7.34-.168-13.5-.505-18.483l-13.13.808a127.7 127.7 0 01.303 8.888c0 11.245-1.448 20.873-4.343 28.886-.943 2.693-2.171 4.747-3.686 6.161-1.516 1.414-3.115 2.121-4.798 2.121-2.222 0-4.175-1.178-5.858-3.535-1.683-2.357-2.66-5.589-2.929-9.696-.135-2.963-.202-5.117-.202-6.464 0-7.272.976-15.756 2.929-25.452l-12.827-2.626c-2.155 9.83-3.232 19.291-3.232 28.381 0 1.549.067 3.872.202 6.969v-.101c0 9.629 1.919 16.514 5.757 20.654 3.838 4.141 8.585 6.212 14.241 6.212 2.693 0 5.336-.404 7.929-1.212 2.592-.808 4.763-1.818 6.514-3.03l.303 4.848c-7.81 3.838-14.022 7.154-18.635 9.948a45.955 45.955 0 00-12.018 10.504c-3.4 4.209-5.27 9.107-5.606 14.696-.067.539-.101 1.347-.101 2.424 0 5.185 1.01 9.662 3.03 13.433 2.02 3.77 4.697 6.632 8.03 8.585 3.333 1.953 6.918 2.929 10.756 2.929h.707zm-.606-13.029c-2.693 0-4.882-1.195-6.565-3.586-1.683-2.39-2.39-5.706-2.121-9.948.135-2.828 1.263-5.387 3.383-7.676 2.121-2.29 4.781-4.36 7.98-6.212 3.198-1.851 7.457-4.056 12.776-6.615.067 1.212.101 3.03.101 5.454 0 4.646-.404 8.804-1.212 12.474-.808 3.67-2.256 6.952-4.343 9.847-1.414 2.087-2.996 3.653-4.747 4.696-1.75 1.044-3.501 1.566-5.252 1.566z" id="a"/></defs><g fill="none"><use fill="#0091FF" xlink:href="#a"/><use fill="url(#b)" xlink:href="#a"/></g></svg>