<svg xmlns="http://www.w3.org/2000/svg" width="61" height="61" fill="none" aria-hidden="true"><path fill="#95C7EF" d="M60.088 7.903C41.841-2.634 19.16-2.634.913 7.903l-.553.313v.64c0 21.072 11.337 40.713 29.584 51.248l.56.312.552-.313C49.303 49.566 60.64 29.925 60.64 8.853v-.64l-.552-.31ZM30.504 57.878C13.432 47.76 2.786 29.326 2.566 9.488 19.863-.24 41.15-.24 58.438 9.488c-.221 19.838-10.862 38.272-27.934 48.39Z"/><path fill="#95C7EF" d="M3.68 10.125c.434 18.993 10.6 36.593 26.824 46.465 16.225-9.872 26.39-27.472 26.825-46.465a55.93 55.93 0 0 0-26.825-6.856A55.928 55.928 0 0 0 3.68 10.125Zm41.306 9.218-18.6 18.6-10.363-10.362 3.103-3.103 7.257 7.256 15.496-15.487 3.107 3.096Z"/></svg>