<svg width="100%" height="100%" viewBox="0 0 420 200" version="1.1" xmlns="http://www.w3.org/2000/svg" xmlns:xlink="http://www.w3.org/1999/xlink" xml:space="preserve" xmlns:serif="http://www.serif.com/" style="fill-rule:evenodd;clip-rule:evenodd;stroke-linejoin:round;stroke-miterlimit:2;">
    <g transform="matrix(0.788803,0,0,0.788803,-61.067,-26.924)">
        <g transform="matrix(144,0,0,144,77.4173,211.321)">
            <path d="M0.214,0C0.12,0 0.049,-0.049 0,-0.146L0.109,-0.211C0.141,-0.151 0.177,-0.121 0.217,-0.121C0.238,-0.121 0.257,-0.127 0.273,-0.14C0.287,-0.153 0.294,-0.167 0.294,-0.183C0.294,-0.198 0.289,-0.214 0.279,-0.229C0.273,-0.237 0.263,-0.246 0.251,-0.258C0.239,-0.269 0.223,-0.282 0.205,-0.298C0.169,-0.327 0.14,-0.354 0.116,-0.376C0.093,-0.399 0.076,-0.418 0.065,-0.434C0.043,-0.467 0.031,-0.499 0.031,-0.53C0.031,-0.577 0.049,-0.617 0.084,-0.65C0.12,-0.684 0.164,-0.7 0.214,-0.7C0.248,-0.7 0.28,-0.692 0.31,-0.675C0.325,-0.668 0.341,-0.657 0.357,-0.643C0.374,-0.629 0.391,-0.612 0.409,-0.592L0.313,-0.508C0.281,-0.554 0.248,-0.576 0.214,-0.576C0.195,-0.576 0.182,-0.572 0.174,-0.564C0.163,-0.556 0.158,-0.545 0.158,-0.533C0.158,-0.523 0.161,-0.513 0.167,-0.502C0.174,-0.496 0.184,-0.486 0.2,-0.472C0.215,-0.458 0.236,-0.44 0.261,-0.418C0.29,-0.394 0.312,-0.375 0.328,-0.36C0.338,-0.351 0.345,-0.345 0.35,-0.341C0.396,-0.297 0.418,-0.246 0.418,-0.189C0.418,-0.133 0.4,-0.088 0.362,-0.053C0.325,-0.018 0.276,0 0.214,0Z" style="fill-rule:nonzero;"/>
        </g>
        <g transform="matrix(144,0,0,144,143.441,211.321)">
            <path d="M0.631,-0.7L0.432,-0.147L0.363,-0.34L0.494,-0.7L0.631,-0.7ZM0.138,-0.7L0.383,-0.01L0.376,0L0.249,0L0,-0.7L0.138,-0.7Z" style="fill-rule:nonzero;"/>
        </g>
        <g transform="matrix(144,0,0,144,232.034,211.321)">
            <path d="M0.699,-0.363C0.699,-0.361 0.699,-0.359 0.7,-0.357C0.7,-0.355 0.7,-0.352 0.7,-0.35C0.7,-0.318 0.696,-0.287 0.688,-0.257C0.679,-0.227 0.668,-0.199 0.652,-0.173C0.637,-0.147 0.619,-0.124 0.598,-0.103C0.576,-0.081 0.553,-0.063 0.527,-0.048C0.501,-0.033 0.473,-0.021 0.443,-0.012C0.413,-0.004 0.382,0 0.35,0C0.318,0 0.287,-0.004 0.257,-0.012C0.227,-0.021 0.199,-0.033 0.173,-0.048C0.147,-0.063 0.124,-0.081 0.103,-0.103C0.081,-0.124 0.063,-0.147 0.048,-0.173C0.033,-0.199 0.021,-0.227 0.012,-0.257C0.004,-0.287 0,-0.318 0,-0.35C0,-0.382 0.004,-0.413 0.012,-0.443C0.021,-0.473 0.033,-0.501 0.048,-0.527C0.063,-0.553 0.081,-0.576 0.103,-0.598C0.124,-0.619 0.147,-0.637 0.173,-0.652C0.199,-0.668 0.227,-0.679 0.257,-0.688C0.287,-0.696 0.318,-0.7 0.35,-0.7C0.399,-0.7 0.445,-0.691 0.488,-0.672C0.53,-0.654 0.568,-0.628 0.6,-0.596L0.587,-0.585L0.508,-0.516C0.487,-0.536 0.464,-0.552 0.437,-0.563C0.41,-0.574 0.381,-0.58 0.35,-0.58C0.319,-0.58 0.289,-0.574 0.261,-0.562C0.233,-0.55 0.208,-0.534 0.188,-0.513C0.167,-0.492 0.15,-0.468 0.138,-0.44C0.126,-0.412 0.12,-0.382 0.12,-0.35C0.12,-0.319 0.126,-0.289 0.138,-0.261C0.15,-0.233 0.167,-0.208 0.188,-0.188C0.208,-0.167 0.233,-0.15 0.261,-0.138C0.289,-0.126 0.319,-0.12 0.35,-0.12C0.372,-0.12 0.393,-0.123 0.413,-0.129C0.433,-0.135 0.452,-0.144 0.469,-0.154C0.486,-0.165 0.502,-0.178 0.516,-0.193C0.53,-0.208 0.542,-0.224 0.551,-0.242L0.35,-0.242L0.35,-0.363L0.699,-0.363Z" style="fill-rule:nonzero;"/>
        </g>
        <g transform="matrix(144,0,0,144,343.62,211.321)">
            <path d="M0.232,0L0,0L0,-0.7L0.111,-0.7C0.127,-0.7 0.144,-0.7 0.161,-0.699C0.179,-0.699 0.195,-0.698 0.211,-0.697C0.227,-0.696 0.242,-0.694 0.255,-0.693C0.267,-0.691 0.278,-0.689 0.285,-0.687C0.326,-0.675 0.36,-0.654 0.386,-0.625C0.411,-0.596 0.424,-0.56 0.424,-0.518C0.424,-0.492 0.418,-0.468 0.405,-0.446C0.395,-0.424 0.377,-0.403 0.353,-0.384C0.433,-0.346 0.474,-0.286 0.474,-0.205C0.474,-0.164 0.464,-0.128 0.444,-0.098C0.422,-0.065 0.396,-0.04 0.366,-0.023C0.333,-0.008 0.288,0 0.232,0ZM0.2,-0.127C0.255,-0.127 0.293,-0.134 0.313,-0.147C0.333,-0.162 0.343,-0.183 0.343,-0.208C0.343,-0.237 0.332,-0.261 0.311,-0.28C0.286,-0.298 0.249,-0.306 0.197,-0.306L0.133,-0.306L0.133,-0.127L0.2,-0.127ZM0.197,-0.423C0.229,-0.423 0.254,-0.431 0.271,-0.446C0.286,-0.46 0.294,-0.478 0.294,-0.501C0.294,-0.525 0.286,-0.542 0.271,-0.553C0.256,-0.566 0.233,-0.573 0.203,-0.573L0.133,-0.573L0.133,-0.423L0.197,-0.423Z" style="fill-rule:nonzero;"/>
        </g>
        <g transform="matrix(144,0,0,144,417.238,211.321)">
            <path d="M0.349,-0.121C0.379,-0.121 0.406,-0.127 0.431,-0.138C0.457,-0.149 0.48,-0.165 0.501,-0.187C0.545,-0.229 0.566,-0.283 0.566,-0.348C0.566,-0.411 0.545,-0.465 0.501,-0.51C0.46,-0.554 0.408,-0.576 0.346,-0.576C0.283,-0.576 0.231,-0.554 0.19,-0.51C0.149,-0.468 0.128,-0.414 0.128,-0.348C0.128,-0.274 0.155,-0.215 0.209,-0.171C0.25,-0.138 0.296,-0.121 0.349,-0.121ZM0.349,0C0.25,0 0.167,-0.034 0.1,-0.103C0.033,-0.174 0,-0.255 0,-0.348C0,-0.414 0.016,-0.473 0.047,-0.526C0.077,-0.579 0.119,-0.622 0.174,-0.653C0.228,-0.685 0.287,-0.7 0.349,-0.7C0.442,-0.7 0.523,-0.666 0.591,-0.598C0.66,-0.528 0.695,-0.445 0.695,-0.348C0.695,-0.249 0.661,-0.166 0.595,-0.1C0.527,-0.033 0.445,0 0.349,0Z" style="fill-rule:nonzero;"/>
        </g>
        <g transform="matrix(144,0,0,144,512.159,211.321)">
            <path d="M0.625,0L0.475,0L0.314,-0.245L0.15,0L0,0L0.236,-0.36L0.013,-0.7L0.164,-0.7L0.39,-0.36C0.433,-0.293 0.468,-0.239 0.495,-0.199C0.521,-0.158 0.54,-0.13 0.55,-0.115L0.625,0ZM0.445,-0.445L0.367,-0.56L0.461,-0.7L0.612,-0.7L0.445,-0.445Z" style="fill-rule:nonzero;"/>
        </g>
    </g>
</svg>
