<svg xmlns="http://www.w3.org/2000/svg" aria-hidden="true" aria-labelledby="svgcid-do1tch699dyn" data-bbox="5.435 4.715 121.305 39.648" data-type="color" preserveAspectRatio="xMidYMid meet" role="presentation" viewBox="5.435 4.715 121.305 39.648"><title id="svgcid-do1tch699dyn"/><g><path fill="#000" d="M67.08 19.15v11.41A13.88 13.88 0 1 1 49 17.06l.51-.15a14.59 14.59 0 0 1 3.61-.4 2.35 2.35 0 0 1 2.46 2.24.66.66 0 0 1 0 .14 2.33 2.33 0 0 1-2.24 2.4h-.21a9.13 9.13 0 0 0-9.15 9.13v.53a9.21 9.21 0 0 0 18.34.49 18.22 18.22 0 0 0 0-2.09V10.74c0-1.2 0-2.4.09-3.59A2.35 2.35 0 0 1 64 4.9a2.38 2.38 0 0 1 3 1.61 2.56 2.56 0 0 1 .1.54v12.1z" data-color="1"/><path fill="#000" d="M119.27 32.72h-4.65a2.26 2.26 0 0 1-2.4-2.06 2.29 2.29 0 0 1 1.91-2.61h.09a16.73 16.73 0 0 1 2.65-.08h4.2c.4 0 .51 0 .37-.49a9.2 9.2 0 0 0-11.63-5.82 9.09 9.09 0 0 0-3.27 1.92c-4.22 3.78-4.6 12.61 3.35 15.5a8.63 8.63 0 0 0 7.57-.85c.45-.26.87-.57 1.3-.84a2.37 2.37 0 1 1 2.77 3.85 13.5 13.5 0 0 1-7.28 3 14 14 0 1 1 12.32-16.16 9.69 9.69 0 0 1 .14 2.58 2.17 2.17 0 0 1-2 2 38.14 38.14 0 0 1-4 .08h-1.44z" data-color="1"/><path fill="#000" d="M89.56 32.72h-4.7a2.35 2.35 0 0 1-.37-4.67 17.37 17.37 0 0 1 2.7-.09h4.25c.34 0 .43-.07.32-.42a9.21 9.21 0 0 0-11.61-5.88 9 9 0 0 0-3.39 2c-3.48 3.31-3.67 9-1.08 12.21A9.22 9.22 0 0 0 88.19 38c.36-.23.71-.49 1.09-.7a2.3 2.3 0 0 1 3 .61 2.34 2.34 0 0 1-.34 3.24 13.3 13.3 0 0 1-7.67 3.15 13.74 13.74 0 0 1-11-3.94 13.26 13.26 0 0 1-4.14-8.82 13.46 13.46 0 0 1 4.06-11 13.26 13.26 0 0 1 14-3.46c5.32 1.66 8.53 5.4 9.65 10.88a12.43 12.43 0 0 1 .2 2.44A2.22 2.22 0 0 1 95 32.7a9.26 9.26 0 0 1-1 .07h-4.43z" data-color="1"/><path fill="#000" d="M5.44 41.51A3.77 3.77 0 0 1 5.78 40L16.5 14.51l3.28-7.78a3.71 3.71 0 0 1 .8-1.26 2.3 2.3 0 0 1 3.27-.14l.08.07a4 4 0 0 1 .62.73A1.93 1.93 0 0 1 24.7 8c-4 9-7.57 18.16-11.33 27.25l-2.87 7a3.12 3.12 0 0 1-1.13 1.45 2.35 2.35 0 0 1-2.59.11 2.39 2.39 0 0 1-1.34-2.3z" data-color="1"/><path fill="#000" d="M28.32 27.8c-.86-2.08-1.67-4.06-2.49-6a3.3 3.3 0 0 1-.31-2 2.5 2.5 0 0 1 2.23-2 2.57 2.57 0 0 1 2.66 1.62l7.66 18.9c.33.8.69 1.58 1 2.4a2.58 2.58 0 0 1-4.15 2.79 2.87 2.87 0 0 1-.75-1.16c-1.22-3-2.46-6-3.65-9.07a.75.75 0 0 0-.91-.56c-2.62.2-5.25.26-7.89.27a2.59 2.59 0 0 1-2.65-1.73A2.55 2.55 0 0 1 20.64 28a2.34 2.34 0 0 1 .87-.14c2.27-.07 4.49-.06 6.81-.06z" data-color="1"/><path fill="#000" d="M23.35 14.51a2.44 2.44 0 0 1 4.88 0 2.46 2.46 0 0 1-2.43 2.45 2.45 2.45 0 0 1-2.45-2.45z" data-color="1"/><path fill="#000" d="M58.78 22.25a2.42 2.42 0 0 1-2.44-2.4 2.44 2.44 0 1 1 4.88 0 2.42 2.42 0 0 1-2.39 2.43z" data-color="1"/><path fill="#000" d="M110.5 30.42a2.42 2.42 0 0 1-2.4 2.42 2.44 2.44 0 1 1 2.45-2.43z" data-color="1"/><path fill="#000" d="M75.9 30.41A2.42 2.42 0 0 1 78.31 28a2.44 2.44 0 1 1 0 4.88 2.41 2.41 0 0 1-2.42-2.4z" data-color="1"/></g></svg>