<svg xmlns="http://www.w3.org/2000/svg" width="162" height="162" fill="none" viewBox="0 0 162 162"><path fill="#275AA6" fill-rule="evenodd" d="M54 108C83.8234 108 108 132.177 108 162H54V108Z" clip-rule="evenodd"/><path fill="#3EECFF" fill-rule="evenodd" d="M108 162C137.823 162 162 137.823 162 108H108V162Z" clip-rule="evenodd"/><path fill="#FF3D8B" fill-rule="evenodd" d="M162 54C132.177 54 108 78.1766 108 108H162V54Z" clip-rule="evenodd"/><path fill="#3E8BFF" fill-rule="evenodd" d="M54 108V54H108C108 83.8234 83.8234 108 54 108Z" clip-rule="evenodd"/><path fill="#232529" fill-rule="evenodd" d="M54 108C24.1766 108 0 83.8234 0 54H54V108Z" clip-rule="evenodd"/><path fill="#3FFFB2" fill-rule="evenodd" d="M108 0C78.1766 0 54 24.1766 54 54H108V0Z" clip-rule="evenodd"/><path fill="#FF3D8B" fill-rule="evenodd" d="M0 0C29.8234 0 54 24.1766 54 54H0V0Z" clip-rule="evenodd"/></svg>